<svg width="33" height="33" viewBox="0 0 33 33" fill="none" xmlns="http://www.w3.org/2000/svg">
<path d="M28.875 26.125V27.5H4.125V26.125L6.875 23.375V15.125C6.875 10.8625 9.66625 7.10875 13.75 5.89875V5.5C13.75 4.77065 14.0397 4.07118 14.5555 3.55546C15.0712 3.03973 15.7707 2.75 16.5 2.75C17.2293 2.75 17.9288 3.03973 18.4445 3.55546C18.9603 4.07118 19.25 4.77065 19.25 5.5V5.89875C23.3337 7.10875 26.125 10.8625 26.125 15.125V23.375L28.875 26.125ZM19.25 28.875C19.25 29.6043 18.9603 30.3038 18.4445 30.8195C17.9288 31.3353 17.2293 31.625 16.5 31.625C15.7707 31.625 15.0712 31.3353 14.5555 30.8195C14.0397 30.3038 13.75 29.6043 13.75 28.875" fill="white"/>
</svg>
