<svg width="23" height="23" viewBox="0 0 23 23" fill="none" xmlns="http://www.w3.org/2000/svg">
<path d="M1.24276 4.47417C0.621965 4.46969 0.110381 4.97395 0.105903 5.59474L7.54599e-05 20.268C-0.00887921 21.5096 0.999637 22.5328 2.24122 22.5417L16.9145 22.6476C17.5353 22.652 18.0469 22.1478 18.0514 21.527C18.0558 20.9062 17.5516 20.3946 16.9308 20.3901L3.38622 20.2924C2.76542 20.288 2.26117 19.7764 2.26564 19.1556L2.36333 5.61102C2.36781 4.99023 1.86355 4.47865 1.24276 4.47417ZM20.4635 0.0977029L6.91889 1.55368e-05C5.6773 -0.00893914 4.65414 0.999577 4.64518 2.24116L4.54749 15.7857C4.53854 17.0273 5.54705 18.0505 6.78864 18.0594L20.3332 18.1571C21.5748 18.1661 22.598 17.1576 22.6069 15.916L22.7046 2.37141C22.7136 1.12983 21.705 0.106658 20.4635 0.0977029ZM18.1328 10.2398L14.7466 10.2154L14.7222 13.6016C14.7177 14.2224 14.2061 14.7266 13.5853 14.7221C12.9646 14.7177 12.4603 14.2061 12.4648 13.5853L12.4892 10.1991L9.10305 10.1747C8.48226 10.1702 7.978 9.65866 7.98248 9.03787C7.98696 8.41707 8.49854 7.91282 9.11933 7.91729L12.5055 7.94172L12.5299 4.55557C12.5344 3.93478 13.046 3.43052 13.6668 3.435C14.2875 3.43948 14.7918 3.95106 14.7873 4.57186L14.7629 7.958L18.149 7.98242C18.7698 7.9869 19.2741 8.49848 19.2696 9.11927C19.2651 9.74007 18.7536 10.2443 18.1328 10.2398Z" fill="#044C72"/>
</svg>
