<svg width="24" height="25" viewBox="0 0 24 25" fill="none" xmlns="http://www.w3.org/2000/svg">
<path d="M12 9.72222C12.6128 9.72222 13.2197 9.59649 13.7859 9.35219C14.352 9.1079 14.8665 8.74983 15.2998 8.29844C15.7332 7.84704 16.0769 7.31115 16.3114 6.72138C16.546 6.1316 16.6667 5.49948 16.6667 4.86111C16.6667 4.22274 16.546 3.59062 16.3114 3.00084C16.0769 2.41107 15.7332 1.87518 15.2998 1.42379C14.8665 0.972391 14.352 0.614324 13.7859 0.37003C13.2197 0.125736 12.6128 -1.34526e-08 12 0C10.7623 2.71688e-08 9.57534 0.512152 8.70017 1.42379C7.825 2.33542 7.33333 3.57186 7.33333 4.86111C7.33333 6.15036 7.825 7.3868 8.70017 8.29844C9.57534 9.21007 10.7623 9.72222 12 9.72222ZM0 24.1667V25H24V24.1667C24 21.0556 24 19.5 23.4187 18.3111C22.9073 17.2658 22.0915 16.416 21.088 15.8833C19.9467 15.2778 18.4533 15.2778 15.4667 15.2778H8.53333C5.54667 15.2778 4.05333 15.2778 2.912 15.8833C1.90851 16.416 1.09265 17.2658 0.581334 18.3111C1.58946e-07 19.5 0 21.0556 0 24.1667Z" fill="#044C72"/>
</svg>
