<svg width="71" height="71" viewBox="0 0 71 71" fill="none" xmlns="http://www.w3.org/2000/svg">
<path d="M24.85 34.3167L31.0625 28.1042L24.776 21.8177L21.6698 24.924L24.85 28.0302L21.6698 31.2104L24.85 34.3167ZM62.125 26.625C60.4979 26.625 59.1055 26.0462 57.9478 24.8885C56.7901 23.7308 56.2103 22.3374 56.2083 20.7083C56.2083 19.3771 56.5781 17.96 57.3177 16.4572C58.0573 14.9544 59.6597 12.427 62.125 8.875C64.5902 12.425 66.1927 14.9524 66.9323 16.4572C67.6718 17.962 68.0416 19.3791 68.0416 20.7083C68.0416 22.3354 67.4628 23.7288 66.3051 24.8885C65.1474 26.0481 63.754 26.627 62.125 26.625ZM46.2239 34.3906L49.4041 31.2104L46.2239 28.0302L49.3302 24.924L46.2239 21.8177L39.9375 28.1042L46.2239 34.3906ZM35.5 39.9375C34.218 39.9375 32.9726 40.0854 31.7636 40.3813C30.5546 40.6771 29.4088 41.0962 28.326 41.6385L17.75 35.5C17.75 34.7111 17.5527 33.9715 17.1583 33.2813C16.7638 32.591 16.2215 32.0486 15.5312 31.6542C14.4465 31.0625 13.3253 30.9274 12.1676 31.2489C11.0099 31.5704 10.1096 32.2478 9.46663 33.2813C8.87496 34.366 8.73986 35.4882 9.06133 36.6478C9.38281 37.8075 10.0603 38.7068 11.0937 39.3458C11.784 39.7403 12.5236 39.9375 13.3125 39.9375C14.1013 39.9375 14.8409 39.7403 15.5312 39.3458L24.3323 44.449C23.4941 45.2872 22.7417 46.1875 22.075 47.1499C21.4084 48.1124 20.8542 49.1596 20.4125 50.2917H25.2937C26.3291 48.5167 27.7343 47.0868 29.5093 46.0021C31.2843 44.9174 33.2812 44.375 35.5 44.375C37.7187 44.375 39.7156 44.9174 41.4906 46.0021C43.2656 47.0868 44.6708 48.5167 45.7062 50.2917H50.5875C49.4041 47.2347 47.4684 44.7448 44.7803 42.8219C42.0921 40.899 38.9987 39.9375 35.5 39.9375ZM35.5 65.0833C31.3583 65.0833 27.4878 64.3063 23.8885 62.7522C20.2892 61.1981 17.1583 59.0907 14.4958 56.4302C11.8333 53.7697 9.73781 50.6388 8.20933 47.0375C6.68086 43.4362 5.91663 39.5904 5.91663 35.5C5.91663 31.4096 6.68086 27.5638 8.20933 23.9625C9.73781 20.3612 11.8333 17.2303 14.4958 14.5698C17.1583 11.9093 20.2892 9.80096 23.8885 8.24488C27.4878 6.6888 31.3583 5.91273 35.5 5.91667C39.1486 5.91667 42.5881 6.50834 45.8186 7.69167C49.0491 8.875 51.9453 10.5514 54.5072 12.7208C53.817 14.0028 53.1878 15.2847 52.6198 16.5667C52.0518 17.8486 51.7688 19.2292 51.7708 20.7083C51.7708 23.6174 52.7816 26.0708 54.8031 28.0687C56.8246 30.0665 59.2652 31.0645 62.125 31.0625C62.5687 31.0625 63.0125 31.0379 63.4562 30.9885C63.9 30.9392 64.3191 30.8653 64.7135 30.7667C64.8121 31.5556 64.8989 32.3326 64.9738 33.0978C65.0488 33.8631 65.0853 34.6638 65.0833 35.5C65.0833 39.5924 64.3062 43.4382 62.7521 47.0375C61.198 50.6368 59.0907 53.7677 56.4302 56.4302C53.7696 59.0927 50.6387 61.201 47.0375 62.7551C43.4362 64.3092 39.5903 65.0853 35.5 65.0833Z" fill="#8BB870"/>
</svg>
