<svg width="67" height="67" viewBox="0 0 67 67" fill="none" xmlns="http://www.w3.org/2000/svg">
<path d="M57.5181 17.42H50.92V10.4172C50.92 5.41095 46.9696 1.34003 41.95 1.34003H25.0513C20.0289 1.34003 16.08 5.41095 16.08 10.4172V17.42H9.48047C4.98343 17.42 1.33997 20.892 1.33997 25.3756V56.205C1.33997 60.6873 4.98343 64.32 9.48047 64.32H57.5181C62.0138 64.32 65.66 60.6873 65.66 56.2036V25.3756C65.66 20.892 62.0138 17.42 57.5181 17.42ZM21.44 10.4172C21.44 8.54253 23.1712 6.70003 25.0513 6.70003H41.95C43.8247 6.70003 45.56 8.54253 45.56 10.4172V17.42H21.44V10.4172ZM48.24 46.9H38.86V56.28H28.14V46.9H18.76V36.18H28.14V26.8H38.86V36.18H48.24V46.9Z" fill="#4471D2"/>
</svg>
