<svg width="43" height="43" viewBox="0 0 43 43" fill="none" xmlns="http://www.w3.org/2000/svg">
<path d="M23.8273 5.64014L39.2966 32.4327C39.5324 32.8413 39.6566 33.3047 39.6566 33.7765C39.6566 34.2482 39.5325 34.7116 39.2966 35.1202C39.0607 35.5287 38.7215 35.868 38.3129 36.1039C37.9044 36.3398 37.4409 36.464 36.9692 36.464H6.03069C5.55894 36.464 5.09551 36.3398 4.68697 36.1039C4.27843 35.868 3.93917 35.5287 3.7033 35.1202C3.46743 34.7116 3.34326 34.2482 3.34326 33.7765C3.34326 33.3047 3.46744 32.8413 3.70332 32.4327L19.1726 5.64014C20.2064 3.84847 22.7917 3.84847 23.8273 5.64014ZM21.4999 26.875C21.0248 26.875 20.569 27.0637 20.233 27.3997C19.897 27.7357 19.7083 28.1915 19.7083 28.6666C19.7083 29.1418 19.897 29.5975 20.233 29.9335C20.569 30.2695 21.0248 30.4583 21.4999 30.4583C21.9751 30.4583 22.4308 30.2695 22.7668 29.9335C23.1028 29.5975 23.2916 29.1418 23.2916 28.6666C23.2916 28.1915 23.1028 27.7357 22.7668 27.3997C22.4308 27.0637 21.9751 26.875 21.4999 26.875ZM21.4999 14.3333C21.0611 14.3334 20.6375 14.4945 20.3096 14.7861C19.9817 15.0777 19.7722 15.4795 19.7208 15.9153L19.7083 16.125V23.2916C19.7088 23.7483 19.8836 24.1875 20.1971 24.5196C20.5106 24.8517 20.9391 25.0515 21.3949 25.0782C21.8508 25.105 22.2997 24.9567 22.6499 24.6636C23.0001 24.3705 23.2251 23.9547 23.2791 23.5013L23.2916 23.2916V16.125C23.2916 15.6498 23.1028 15.1941 22.7668 14.8581C22.4308 14.5221 21.9751 14.3333 21.4999 14.3333Z" fill="white"/>
</svg>
